<svg id="Capa_1" data-name="Capa 1" xmlns="http://www.w3.org/2000/svg" xmlns:xlink="http://www.w3.org/1999/xlink" viewBox="0 0 1182.69 700.79"><defs><style>.cls-1{fill:none;}.cls-2{clip-path:url(#clip-path);}.cls-3{fill:url(#Degradado_sin_nombre_19);}</style><clipPath id="clip-path" transform="translate(-343.77 -164.41)"><path id="SVGID" class="cls-1" d="M1256.08,355.7A249.16,249.16,0,0,0,1181.72,367L1128.26,252.7h84.6a32.19,32.19,0,1,0,0-64.38H1077.66a32.19,32.19,0,0,0-29.16,45.83L1123.27,394c-5,3.13-14.32,10.29-14.32,10.29-19.3,11.13-78.67,66.1-200.18,180.21-72.31,67.9-171.34,160.9-188,171.18l.13-.08h0a182.92,182.92,0,0,1-106.71,34.2c-101.42,0-183.93-82.51-183.93-183.93s82.51-183.93,183.93-183.93,183.93,82.51,183.93,183.93a184.51,184.51,0,0,1-2.28,28.93c21.81-20.28,44.78-41.8,66.31-62-16.23-122.36-121.24-217.08-248-217.08C476.22,355.7,364,467.92,364,605.85S476.22,856,614.15,856A248.73,248.73,0,0,0,754,813.14l-.11-.19c19.3-11.13,78.67-66.1,200.18-180.21,72.31-67.9,171.34-160.9,187.92-171.11h0c3.11-2.47,6.33-4.8,9.6-7.07l77.14,164.91a32.19,32.19,0,1,0,58.31-27.28l-76.94-164.47a183.54,183.54,0,0,1,45.94-5.83c101.42,0,183.93,82.51,183.93,183.93s-82.51,183.93-183.93,183.93-183.93-82.51-183.93-183.93a184.41,184.41,0,0,1,2.54-30.49c-21.64,20.08-44.78,41.74-66.74,62.34,15.69,123,121,218.3,248.13,218.3,137.93,0,250.15-112.22,250.15-250.15S1394,355.7,1256.08,355.7Z"/></clipPath><linearGradient id="Degradado_sin_nombre_19" y1="350.39" x2="1182.69" y2="350.39" gradientUnits="userSpaceOnUse"><stop offset="0" stop-color="#083327"/><stop offset="0.15" stop-color="#0a382b"/><stop offset="0.33" stop-color="#124838"/><stop offset="0.53" stop-color="#1d614e"/><stop offset="0.75" stop-color="#2e856b"/><stop offset="0.98" stop-color="#43b291"/><stop offset="1" stop-color="#45b795"/></linearGradient></defs><title>bike logo</title><g class="cls-2"><rect class="cls-3" width="1182.69" height="700.79"/></g></svg>